<?xml version="1.0" standalone="no"?>
<!DOCTYPE svg PUBLIC "-//W3C//DTD SVG 20010904//EN"
 "http://www.w3.org/TR/2001/REC-SVG-20010904/DTD/svg10.dtd">
<svg version="1.0" xmlns="http://www.w3.org/2000/svg"
 width="928.000000pt" height="928.000000pt" viewBox="0 0 928.000000 928.000000"
 preserveAspectRatio="xMidYMid meet">
<metadata>
Created by potrace 1.14, written by Peter Selinger 2001-2017
</metadata>
<g transform="translate(0.000000,928.000000) scale(0.100000,-0.100000)"
fill="#000000" stroke="none">
<path d="M3538 8825 c-2 -1 -43 -5 -93 -9 -49 -4 -103 -9 -120 -11 -16 -2 -50
-7 -75 -10 -25 -4 -63 -11 -85 -16 -22 -5 -56 -12 -75 -15 -19 -2 -43 -7 -52
-10 -9 -3 -25 -7 -35 -9 -10 -2 -45 -11 -78 -20 -33 -9 -78 -20 -100 -26 -21
-6 -45 -14 -51 -20 -7 -5 -16 -9 -20 -8 -5 1 -22 -3 -38 -10 -16 -6 -36 -13
-45 -15 -9 -2 -27 -8 -41 -13 -14 -6 -59 -24 -100 -41 -106 -42 -194 -84 -202
-97 -4 -5 -8 -7 -8 -3 0 13 -262 -137 -268 -154 -2 -4 -8 -8 -14 -8 -14 0
-171 -123 -242 -190 -232 -218 -438 -449 -595 -665 -39 -55 -79 -108 -87 -118
-7 -9 -14 -19 -14 -21 0 -3 -19 -32 -42 -67 -45 -65 -46 -66 -93 -144 -53 -90
-64 -109 -91 -160 -15 -27 -31 -53 -36 -56 -5 -3 -9 -9 -9 -13 1 -3 -33 -75
-74 -159 -41 -85 -75 -159 -75 -165 0 -7 -4 -12 -8 -12 -5 0 -9 -6 -9 -12 0
-7 -17 -50 -36 -95 -20 -44 -33 -84 -30 -87 4 -3 1 -6 -5 -6 -7 0 -12 -8 -12
-18 0 -10 -3 -22 -7 -26 -4 -3 -8 -16 -10 -29 -2 -12 -8 -26 -13 -31 -6 -6
-10 -17 -10 -25 0 -9 -6 -28 -14 -42 -7 -14 -16 -37 -20 -52 -3 -14 -11 -39
-18 -54 -6 -15 -12 -32 -12 -38 -1 -5 -8 -30 -16 -55 -8 -25 -14 -49 -15 -55
0 -5 -4 -15 -7 -21 -4 -6 -9 -21 -12 -35 -3 -13 -10 -40 -16 -59 -15 -47 -87
-337 -93 -375 -3 -16 -8 -37 -11 -45 -3 -8 -7 -28 -10 -45 -3 -16 -7 -41 -10
-55 -13 -58 -16 -74 -32 -174 -3 -22 -10 -49 -14 -62 -5 -12 -7 -24 -4 -26 2
-3 -1 -29 -6 -59 -15 -77 -24 -149 -25 -186 0 -18 -3 -33 -6 -33 -3 0 -6 -20
-8 -44 -1 -25 -4 -54 -6 -65 -4 -21 -14 -106 -20 -176 -2 -22 -6 -62 -9 -90
-5 -48 -14 -165 -22 -270 -6 -87 -2 -340 6 -340 1 0 3 -20 5 -45 4 -50 12
-112 20 -150 3 -14 10 -54 16 -90 6 -36 15 -70 20 -76 5 -6 7 -13 4 -16 -3 -2
0 -20 6 -39 5 -19 12 -49 14 -67 3 -18 9 -41 15 -51 5 -10 11 -29 14 -42 3
-13 8 -35 11 -49 3 -14 8 -32 10 -40 2 -8 4 -16 5 -17 2 -2 3 -6 4 -10 10 -36
31 -109 49 -163 11 -36 20 -71 20 -77 0 -7 4 -13 9 -13 4 0 7 -3 7 -7 -1 -5 0
-10 1 -13 1 -3 3 -14 5 -25 20 -106 225 -494 315 -596 8 -9 26 -31 40 -50 38
-50 177 -189 245 -245 33 -27 62 -51 65 -54 3 -3 17 -11 32 -19 15 -8 36 -21
46 -30 35 -31 249 -138 292 -147 3 0 14 -4 25 -8 48 -19 85 -28 190 -51 125
-28 359 -23 500 10 112 26 112 26 147 -6 18 -16 36 -29 40 -29 4 0 15 -8 25
-18 20 -21 228 -167 295 -207 32 -19 133 -78 168 -98 108 -61 384 -189 480
-222 3 -1 12 -5 20 -8 122 -52 483 -152 620 -172 24 -4 47 -8 50 -10 3 -2 28
-6 55 -9 28 -4 59 -8 70 -10 201 -37 640 -48 877 -22 26 3 71 8 100 11 29 2
62 6 73 9 82 17 113 16 138 -4 14 -11 30 -20 36 -20 6 0 11 -3 11 -7 0 -18
309 -175 370 -188 8 -2 35 -11 60 -20 25 -9 52 -18 60 -20 8 -2 40 -11 70 -20
72 -20 195 -46 245 -51 22 -3 51 -7 65 -10 125 -23 479 -22 601 1 14 2 45 7
70 9 24 3 44 5 44 6 0 1 14 4 30 6 51 8 246 63 319 91 86 32 269 121 277 135
3 5 8 8 10 7 5 -4 267 168 293 193 11 10 23 18 27 18 5 0 19 11 33 25 14 14
28 25 31 25 4 0 13 6 20 12 8 7 20 18 27 24 151 124 327 294 424 409 75 89
164 203 164 210 0 3 11 18 25 33 14 15 25 31 25 35 0 5 11 23 25 41 14 18 25
36 25 39 0 4 15 30 33 59 19 29 40 68 48 86 8 17 17 32 21 32 5 0 8 5 8 11 0
6 18 49 40 95 22 46 49 110 61 142 49 136 81 229 85 252 3 14 11 46 19 72 8
27 11 48 8 48 -3 0 0 7 7 15 7 8 10 15 7 15 -3 0 -1 17 4 38 10 41 10 39 34
197 20 134 24 183 29 347 3 70 7 132 11 138 3 5 3 10 -2 10 -4 0 -8 48 -9 108
-1 119 -14 280 -30 372 -2 14 -7 48 -10 75 -3 28 -8 53 -10 57 -3 4 -7 26 -10
49 -4 23 -17 81 -31 128 -13 47 -26 95 -28 105 -2 10 -10 35 -17 55 -7 20 -13
38 -13 41 -2 7 -20 51 -53 130 -47 116 -177 350 -194 350 -4 0 -8 5 -8 11 0 6
-12 26 -27 44 -16 18 -41 49 -58 70 -38 48 -166 176 -208 209 -17 14 -32 35
-33 48 -1 13 -4 30 -7 38 -3 8 -8 29 -11 45 -8 46 -16 88 -22 107 -7 24 -16
70 -17 86 0 6 -3 12 -6 12 -4 0 -8 11 -9 25 -2 32 -76 268 -110 355 -31 78
-48 120 -65 160 -29 70 -120 264 -128 275 -4 6 -24 42 -44 80 -20 39 -42 77
-49 85 -7 8 -18 27 -26 43 -33 67 -136 83 -188 30 -15 -16 -29 -35 -31 -43 -9
-32 -3 -92 11 -108 8 -9 18 -24 22 -32 3 -8 19 -37 35 -65 30 -51 125 -236
126 -245 0 -3 6 -14 12 -26 17 -30 113 -266 116 -284 2 -8 5 -19 9 -25 9 -16
98 -313 98 -329 0 -12 -19 -5 -105 34 -75 36 -297 116 -344 125 -9 2 -16 4
-16 5 0 1 -11 4 -25 6 -14 2 -47 8 -75 14 -27 7 -60 13 -72 15 -12 2 -34 6
-50 9 -31 6 -104 17 -143 21 -134 14 -194 22 -250 31 -19 3 -46 7 -60 9 -40 6
-85 14 -157 30 -37 9 -77 17 -88 19 -37 7 -80 18 -100 26 -11 4 -40 14 -65 21
-25 7 -47 13 -50 14 -3 1 -18 7 -33 13 -16 7 -31 12 -33 12 -6 0 -80 33 -156
70 -55 26 -158 88 -168 101 -3 3 -16 12 -29 19 -30 16 -51 34 -159 140 -100
98 -146 157 -243 315 -42 67 -165 326 -173 365 -2 8 -57 162 -66 185 -7 16
-41 127 -45 145 -9 35 -19 74 -32 113 -8 26 -16 53 -17 60 -2 7 -5 19 -8 27
-21 57 -59 165 -59 167 1 5 -11 38 -24 68 -7 17 -27 64 -43 105 -17 41 -40 96
-52 122 -11 26 -20 51 -20 54 1 4 -2 10 -7 13 -5 3 -32 52 -61 109 l-52 102
58 -6 c31 -3 68 -7 82 -9 14 -2 43 -7 65 -10 49 -6 148 -26 208 -40 12 -3 33
-8 47 -10 14 -2 39 -9 55 -15 17 -6 31 -11 33 -11 1 1 3 1 5 0 6 -2 35 -9 57
-13 14 -3 59 -17 100 -31 41 -14 82 -27 90 -29 16 -4 142 -52 175 -67 24 -10
78 -32 85 -34 21 -5 229 -110 335 -170 126 -71 145 -79 192 -76 34 2 83 51 92
93 13 57 -15 106 -85 146 -31 18 -60 32 -65 32 -5 0 -9 3 -9 8 0 4 -10 12 -23
18 -12 6 -74 38 -137 70 -204 104 -347 163 -627 254 -18 6 -40 13 -50 15 -10
2 -70 18 -133 34 -63 17 -116 30 -118 30 -1 0 -15 2 -30 5 -15 3 -40 8 -57 11
-16 2 -52 9 -80 14 -27 5 -57 9 -65 9 -8 0 -26 3 -39 6 -13 3 -51 8 -85 11
-33 3 -74 7 -91 10 -16 2 -56 5 -88 6 l-58 1 -47 61 c-103 134 -248 250 -397
317 -67 30 -139 57 -174 65 -9 3 -41 11 -71 19 -54 14 -87 21 -165 32 -22 3
-51 8 -65 11 -26 5 -356 13 -362 8z m167 -6815 c113 -17 203 -40 260 -65 17
-8 47 -21 68 -29 52 -21 197 -108 197 -118 0 -4 4 -8 10 -8 16 0 179 -144 223
-198 35 -42 199 -212 375 -389 114 -114 167 -173 155 -174 -10 0 -26 -2 -35
-4 -109 -21 -461 -21 -678 0 -36 4 -81 8 -101 10 -20 1 -41 4 -45 7 -5 2 -22
5 -39 6 -16 2 -84 14 -150 27 -66 14 -129 27 -140 29 -11 2 -20 4 -20 6 0 1
-9 3 -20 5 -119 22 -421 125 -564 191 -100 47 -255 124 -296 148 -22 12 -56
31 -75 42 -28 15 -273 176 -315 207 -15 11 6 21 140 67 66 23 129 45 140 50
11 5 38 16 60 23 22 8 96 35 165 61 69 26 133 49 143 51 9 2 22 7 29 11 6 4
21 8 32 10 12 2 39 8 61 14 22 5 58 12 80 15 21 3 41 7 42 9 8 8 242 4 298 -4z"/>
</g>
</svg>
