<svg xmlns="http://www.w3.org/2000/svg" xmlns:xlink="http://www.w3.org/1999/xlink" viewBox="0 0 422.7 302.4" xmlns:v="https://vecta.io/nano"><style><![CDATA[path:not(.L),g:not(.L),circle:not(.L){animation:dash 20s linear infinite}.M{stroke-dasharray:15}.N{stroke-width:3}.O{stroke-linecap:square}.P{stroke-miterlimit:10}.Q{fill:none}.R{stroke:#ffb300}.S{fill:#ffb300}.T{stroke-dashoffset:0}circle{display:none}path:not(.I),g:not(.I),circle:not(.I) {stroke-dasharray: 15;stroke-dashoffset: 0;animation:dash 20s linear infinite;}@keyframes dash{ from {stroke-dashoffset: 0;}to {stroke-dashoffset: 1000;}}]]></style><path d="M224.9 165.1l.4-66.3" class="M N O P Q R"/><path d="M229.2 93.8c0 2.1-1.7 3.9-3.9 3.9-2.1 0-3.9-1.7-3.9-3.9 0-2.1 1.7-3.9 3.9-3.9 2.1 0 3.9 1.8 3.9 3.9z" class="S"/><path d="M238.4 174.6l.4-127.3-6.2-5V11.4" class="M N O P Q R"/><path d="M184.2 61.5c0 2.1 1.7 3.9 3.9 3.9 2.1 0 3.9-1.7 3.9-3.9 0-2.1-1.7-3.9-3.9-3.9-2.1 0-3.9 1.8-3.9 3.9z" class="S"/><path d="M197.7 161.6v-57.7l-9.6-9.1V65.3" class="M N O P Q R"/><path d="M226.6 41.2c0 3.4-2.8 6.2-6.2 6.2s-6.2-2.8-6.2-6.2 2.8-6.2 6.2-6.2 6.2 2.7 6.2 6.2z" class="S"/><path d="M211 176.6V80.7l9.4-9.4v-24M252.6 166l.4-82.7 4.6-4.7V52.9" class="M N O P Q R"/><path d="M261.4 48.7c0 2.1-1.7 3.9-3.9 3.9-2.1 0-3.9-1.7-3.9-3.9 0-2.1 1.7-3.9 3.9-3.9a3.84 3.84 0 0 1 3.9 3.9zm69.8-37.1c0 2.1-1.7 3.9-3.9 3.9-2.1 0-3.9-1.7-3.9-3.9 0-2.1 1.7-3.9 3.9-3.9s3.9 1.8 3.9 3.9zM186.8 114.2c0 2.1-1.7 3.9-3.9 3.9-2.1 0-3.9-1.7-3.9-3.9 0-2.1 1.7-3.9 3.9-3.9a3.84 3.84 0 0 1 3.9 3.9z" class="S"/><path d="M182.9 163.1l.1-45.1m-13.8 46.9l.2-55.1 10-10.1v-66l-9.6-9.6V11.9" class="M N O P Q R"/><path d="M117.3 34.2a3.8 3.8 0 0 1-7.6 0 3.8 3.8 0 0 1 7.6 0z" class="S"/><path d="M174.4 104.7l-5.1-5.1V83.5h-22l-6.7-6.8-.2-13.7" class="M N O P Q R"/><path d="M79.3 78.6c0 3-2.4 5.4-5.4 5.4s-5.4-2.4-5.4-5.4 2.4-5.4 5.4-5.4c3-.1 5.4 2.4 5.4 5.4zm96.1-73.3c0 3-2.4 5.4-5.4 5.4s-5.4-2.4-5.4-5.4S167-.1 170-.1s5.4 2.4 5.4 5.4zm62.6.1c0 3-2.4 5.4-5.4 5.4s-5.4-2.4-5.4-5.4 2.4-5.4 5.4-5.4 5.4 2.4 5.4 5.4zm59.3 35.5c0 3-2.4 5.4-5.4 5.4s-5.4-2.4-5.4-5.4 2.4-5.4 5.4-5.4c2.9 0 5.4 2.4 5.4 5.4z" class="S"/><path d="M155.8 166.3l.2-48.4-24.7-24.8H86.7l-9.8-9.7" class="M N O P Q R"/><path d="M265.7 77.7a3.8 3.8 0 1 0 3.8-3.8c-2.1-.1-3.8 1.6-3.8 3.8zm30 47.5a3.8 3.8 0 1 0 7.6 0 3.8 3.8 0 1 0-7.6 0z" class="S"/><g class="Q R M N O P"><path d="M252.9 102.5h10.2l6.7-6.7.1-13.7"/><path d="M267.4 167.5l.4-50.2 24.7-24.8h44.6l9.8-9.7M113.4 93.1v-54"/><path d="M292.1 91.5V46.2"/><path d="M291.8 74.9h21.8l13.7-13.7V15.1m-78.7 199h75.3"/></g><path d="M328.9,210.3c-2.1,0-3.9,1.7-3.9,3.9c0,2.1,1.7,3.9,3.9,3.9c2.1,0,3.9-1.7,3.9-3.9S331.1,210.3,328.9,210.3z" class="S"/><path d="M239.1 200.6h136.4l4.9 6.2h30.9" class="M N O P Q R"/><path d="M361.2 255.2c-2.1 0-3.9-1.7-3.9-3.9 0-2.1 1.7-3.9 3.9-3.9 2.1 0 3.9 1.7 3.9 3.9 0 2.1-1.7 3.9-3.9 3.9z" class="S"/><path d="M217.4 241.7h101.4l9.2 9.6h29.5" class="M N O P Q R"/><path d="M381.6 212.8c-3.4 0-6.2 2.8-6.2 6.2s2.8 6.2 6.2 6.2 6.2-2.8 6.2-6.2-2.8-6.2-6.2-6.2z" class="S"/><path d="M246.2 228.4H342l9.4-9.4h24m-127.8-32.6h91.9l4.6-4.6h25.7" class="M N O P Q R"/><path d="M411.1 108.2c-2.1 0-3.9 1.7-3.9 3.9 0 2.1 1.7 3.9 3.9 3.9 2.1 0 3.9-1.7 3.9-3.9a3.84 3.84 0 0 0-3.9-3.9zM308.6 252.6c-2.1 0-3.9 1.7-3.9 3.9 0 2.1 1.7 3.9 3.9 3.9 2.1 0 3.9-1.7 3.9-3.9-.1-2.2-1.8-3.9-3.9-3.9z" class="S"/><path d="M233.2 256.4h71.5M231.4 270h81.5l10.1-10h66l9.7 9.6h12.1M318 265l5.1 5.1h16.2v22l6.7 6.7 13.7.2" class="M N O P Q R"/><g class="S"><use xlink:href="#A"/><use xlink:href="#A" x="-.1" y="-62.6"/><use xlink:href="#A" x="-35.6" y="-121.9"/><path d="M345.1 173.7a3.8 3.8 0 1 1 0-7.6 3.8 3.8 0 1 1 0 7.6z"/></g><path d="M320.2 186.5v-10.2l6.7-6.7 13.8-.1" class="M N O P Q R"/><path d="M330.7 128.4c-3 0-5.4-2.4-5.4-5.4s2.4-5.4 5.4-5.4 5.4 2.4 5.4 5.4-2.4 5.4-5.4 5.4z" class="S"/><g class="M N O P Q R"><path d="M246.2 171.6h59.3l24.7-24.7v-18m1 18.4h45.4"/><path d="M347.9 147.6v-21.8l13.6-13.7h46.1m-238.2 102H98.8"/></g><path d="M93.8 210.3c2.1 0 3.9 1.7 3.9 3.9 0 2.1-1.7 3.9-3.9 3.9-2.1 0-3.9-1.7-3.9-3.9s1.8-3.9 3.9-3.9z" class="S"/><path d="M178.9 200.6H47.3l-5 6.2H11.4" class="M N O P Q R"/><path d="M61.5 255.2c2.1 0 3.9-1.7 3.9-3.9 0-2.1-1.7-3.9-3.9-3.9-2.1 0-3.9 1.7-3.9 3.9 0 2.1 1.8 3.9 3.9 3.9z" class="S"/><path d="M183.3 242.2l-79.4-.5-9.1 9.6H65.3" class="M N O P Q R"/><path d="M41.2 212.8c3.4 0 6.2 2.8 6.2 6.2s-2.8 6.2-6.2 6.2-6.2-2.8-6.2-6.2 2.7-6.2 6.2-6.2z" class="S"/><path d="M198.3 229l-117.6-.6-9.4-9.4h-24m123-32.6h-87l-4.7-4.6H52.9" class="M N O P Q R"/><path d="M11.6 108.2c2.1 0 3.9 1.7 3.9 3.9 0 2.1-1.7 3.9-3.9 3.9-2.1 0-3.9-1.7-3.9-3.9s1.8-3.9 3.9-3.9zm102.6 144.4c2.1 0 3.9 1.7 3.9 3.9 0 2.1-1.7 3.9-3.9 3.9-2.1 0-3.9-1.7-3.9-3.9a3.84 3.84 0 0 1 3.9-3.9z" class="S"/><path d="M167.6 256.9l-49.6-.5m51.4 14.2l-59.6-.6-10.1-10h-66l-9.6 9.6H11.9m92.8-4.6l-5.1 5.1H83.5v22l-6.8 6.7-13.7.2" class="M N O P Q R"/><g class="S"><use xlink:href="#B"/><use xlink:href="#B" x=".1" y="-62.6"/><use xlink:href="#B" x="35.6" y="-121.9"/><use xlink:href="#B" x="107.5" y="-150.4"/><path d="M77.7 173.7a3.8 3.8 0 1 0-3.8-3.8c-.1 2.1 1.6 3.8 3.8 3.8z"/></g><g class="M N O P Q R"><path d="M102.5 186.5v-10.2l-6.7-6.7-13.7-.1m89.7 2.1h-54.5l-24.8-24.7v-27.7l14.2-.2m-15.2 28.3H46.2"/><path d="M74.9 147.6v-21.8l-13.7-13.7H15.1m253 12.8h28.1"/></g><g fill="#1d262d"><path d="M1052.6 446.3c-.4.4-.8.9-1.1 1.5l-.5-.2c-.1-.3-.3-.5-.7-.5-.3 0-.6.3-.5.7 0 .3.3.6.7.5.1 0 .1 0 .2-.1l.5.2c-.3.6-.4 1.1-.5 1.7l.7.1c.2-1.3.8-2.5 1.8-3.5l-.6-.4zm5.4-2.3h-.5l-.1-.6c.2-.1.3-.4.3-.6 0-.4-.4-.7-.8-.6-.4 0-.7.4-.6.8 0 .3.2.5.4.6l.1.6a8.3 8.3 0 0 0-2.1.6l.3.7c.9-.4 1.9-.7 3-.7.5 0 1 .1 1.5.2l.2-.7c-.6-.3-1.1-.3-1.7-.3zm6.6 2.5c.3 0 .6-.3.5-.7 0-.3-.3-.6-.7-.5-.3 0-.5.3-.5.6l-.4.4a7.55 7.55 0 0 0-1.4-1.1l-.4.6c1.1.7 2 1.7 2.6 2.9l.7-.3c-.3-.6-.6-1.1-.9-1.5l.4-.4h.1zm-7.1 7.7h-1.2c-.9 0-1.7-.1-2.5-.2l-1.3-.3c1 1.9 3.1 3.1 5.4 3.1 2.9 0 5.3-1.9 5.9-4.5-.7.4-1.5.8-2.5 1.1-1 .5-2.4.7-3.8.8zm.5-8.7c-3.4 0-6.1 2.7-6.1 5.9 0 .4 0 .8.1 1.3.7.5 2.7.9 5.3.7 2.9-.2 5.3-1 6.7-2.2v-.6c-.3-2.9-2.9-5.1-6-5.1zm-2.1 6.5a1.8 1.8 0 1 1 0-3.6 1.8 1.8 0 1 1 0 3.6zm4.7-.9c-.8 0-1.4-.6-1.4-1.4s.6-1.4 1.4-1.4 1.4.6 1.4 1.4-.6 1.4-1.4 1.4zm13.4-3.7c-.3-.1-.8-.3-1.4-.2s-.8.3-.8 1v.9h2.2v1.7h-2.2v5.5h-1.9v-5.5h-1.3V449h1.3v-.9c0-1.7.9-2.8 2.6-2.8.6 0 1.2.1 1.6.3l-.1 1.8zm4.8 3.3h-.5c-.9 0-1.5.5-1.5 1.6v3.9h-1.9V449h1.9v.8c.5-.7 1.1-1 2-1 .4 0 .8.1 1.1.3l-1.1 1.6zm7.6 1.9v.7h-5.1c.2 1 .9 1.5 1.8 1.5.6 0 1.3-.3 1.8-.7l1.1 1.2c-.8.7-1.9 1.1-3.1 1.1-2.2 0-3.7-1.5-3.7-3.8s1.5-3.8 3.6-3.8c2.2 0 3.6 1.5 3.6 3.8zm-5.1-.7h3.2c-.2-.9-.7-1.4-1.6-1.4s-1.4.5-1.6 1.4zm12.8.7v.7h-5.1c.2 1 .9 1.5 1.8 1.5.6 0 1.3-.3 1.8-.7l1.1 1.2c-.8.7-1.9 1.1-3.1 1.1-2.2 0-3.7-1.5-3.7-3.8s1.5-3.8 3.6-3.8c2.2 0 3.6 1.5 3.6 3.8zm-5.1-.7h3.2c-.2-.9-.7-1.4-1.6-1.4s-1.5.5-1.6 1.4zm13.4.7c0 2.2-1.5 3.8-3.5 3.8-1 0-1.6-.4-2.1-.9v3.7h-1.9V449h1.9v.8c.5-.6 1.2-1 2.1-1 2 0 3.5 1.6 3.5 3.8zm-5.7 0c0 1.1.7 2 1.8 2s1.9-.9 1.9-2-.7-2-1.9-2c-1 0-1.8.8-1.8 2zm8.8-6c0 .7-.5 1.2-1.2 1.2s-1.2-.5-1.2-1.2.5-1.2 1.2-1.2 1.2.6 1.2 1.2zm-.2 9.6h-1.9V449h1.9v7.2zm3.2-4.7l2.7-2.6h2.4l-3.5 3.4 3.5 3.8h-2.4l-2.7-2.9v2.9h-1.9v-10.7h1.9v6.1zm-131.6 4.6V455c-.5.7-1.4 1.2-2.4 1.2-1.8 0-3.1-1.4-3.1-3.7s1.3-3.7 3.1-3.7c1 0 1.8.5 2.4 1.2v-3.8h1.1v9.8h-1.1v.1zm0-1.9V451c-.4-.6-1.2-1.1-2.1-1.1-1.4 0-2.3 1.2-2.3 2.7 0 1.6.8 2.7 2.3 2.7a2.75 2.75 0 0 0 2.1-1.1z"/><use xlink:href="#C"/><path d="M987.1 455.2l.6-.8c.5.5 1.4 1 2.3 1 1.1 0 1.7-.5 1.7-1.2 0-1.7-4.4-.7-4.4-3.3 0-1.1 1-2 2.6-2 1.2 0 2.1.5 2.6 1l-.5.8c-.4-.5-1.2-.9-2.1-.9-1 0-1.6.5-1.6 1.1 0 1.6 4.4.5 4.4 3.3 0 1.2-1 2.1-2.8 2.1-1.1 0-2.1-.4-2.8-1.1zm6.8-7.9a.7.7 0 1 1 1.4 0 .68.68 0 0 1-.7.7c-.3 0-.7-.3-.7-.7zm.2 8.8V449h1.1v7.1h-1.1zm2.9 1.8l.6-.8c.6.7 1.3 1 2.3 1 1.2 0 2.3-.6 2.3-2.1v-1c-.5.7-1.4 1.3-2.4 1.3-1.8 0-3.1-1.4-3.1-3.7s1.3-3.7 3.1-3.7c1 0 1.8.5 2.4 1.2V449h1.1v6.9c0 2.3-1.6 3.1-3.4 3.1-1.2 0-2-.3-2.9-1.1zm5.2-3.8V451c-.4-.6-1.2-1.1-2.1-1.1-1.4 0-2.3 1.1-2.3 2.7s.8 2.7 2.3 2.7c.8-.1 1.7-.6 2.1-1.2zm7.7 2v-4.6c0-1.2-.6-1.6-1.6-1.6-.9 0-1.7.5-2.1 1.1v5.2h-1.1V449h1.1v1c.5-.6 1.5-1.2 2.5-1.2 1.5 0 2.3.7 2.3 2.3v5h-1.1 0z"/><use xlink:href="#C" x="33"/><path d="M1025.8 456.1V455c-.5.7-1.4 1.2-2.4 1.2-1.8 0-3.1-1.4-3.1-3.7s1.3-3.7 3.1-3.7c1 0 1.8.5 2.4 1.2v-3.8h1.1v9.8h-1.1v.1zm0-1.9V451c-.4-.6-1.2-1.1-2.1-1.1-1.4 0-2.3 1.2-2.3 2.7 0 1.6.8 2.7 2.3 2.7.9 0 1.7-.5 2.1-1.1zm6.3 1.9v-9.8h1.1v3.8c.6-.8 1.4-1.2 2.4-1.2 1.8 0 3.1 1.5 3.1 3.7 0 2.3-1.3 3.7-3.1 3.7-1 0-1.9-.5-2.4-1.2v1.1h-1.1v-.1zm3.3-.8c1.4 0 2.3-1.2 2.3-2.7 0-1.6-.8-2.7-2.3-2.7-.9 0-1.7.5-2.1 1.1v3.2c.3.6 1.2 1.1 2.1 1.1zm4.6 2.6c.2.1.4.1.6.1.5 0 .8-.2 1.1-.7l.5-1.1-3-7.1h1.2l2.4 5.8 2.3-5.8h1.2l-3.5 8.5c-.4 1-1.1 1.4-2.1 1.4-.2 0-.6 0-.8-.1l.1-1z"/></g><defs><path id="A" d="M417.4 264c-3 0-5.4 2.4-5.4 5.4s2.4 5.4 5.4 5.4 5.4-2.4 5.4-5.4-2.4-5.4-5.4-5.4z" class="M T"/><path id="B" d="M5.3 264c3 0 5.4 2.4 5.4 5.4s-2.4 5.4-5.4 5.4-5.4-2.4-5.4-5.4 2.4-5.4 5.4-5.4z" class="M T"/><path id="C" d="M979.4 452.6c0-2.1 1.5-3.7 3.5-3.7 2.1 0 3.4 1.7 3.4 3.8v.3h-5.7c.1 1.3 1 2.4 2.5 2.4.8 0 1.6-.3 2.2-.9l.5.7c-.7.7-1.7 1.1-2.8 1.1-2.1 0-3.6-1.5-3.6-3.7zm3.5-2.8c-1.5 0-2.3 1.3-2.3 2.4h4.6c0-1.1-.7-2.4-2.3-2.4z" class="M T"/></defs></svg>